<svg width="812" height="813" viewBox="-329 0 812 813" fill="none" xmlns="http://www.w3.org/2000/svg">
  <path d="M77.3736 0.964844C21.3156 0.964844 -24.1293 46.4097 -24.1293 102.468V160.487L-64.5964 120.015C-104.235 80.3766 -168.503 80.3766 -208.142 120.015C-247.781 159.654 -247.781 223.926 -208.142 263.565L-166.233 305.473H-227.135C-283.193 305.473 -328.638 350.918 -328.638 406.976C-328.638 463.034 -283.193 508.479 -227.135 508.479H-170.293L-209.855 548.041C-249.494 587.68 -249.494 651.947 -209.855 691.586C-170.216 731.225 -105.945 731.225 -66.3057 691.586L-24.1293 649.409V711.484C-24.1293 767.542 21.3156 812.987 77.3736 812.987C133.432 812.987 178.876 767.542 178.876 711.484V650.583L222.498 694.205C262.137 733.844 326.405 733.844 366.043 694.205C405.682 654.566 405.682 590.294 366.043 550.655L323.867 508.479H381.882C437.94 508.479 483.385 463.034 483.385 406.976C483.385 350.918 437.94 305.473 381.882 305.473H319.807L364.334 260.946C403.973 221.307 403.973 157.04 364.334 117.401C324.695 77.7619 260.424 77.7619 220.785 117.401L178.876 159.309V102.468C178.876 46.4097 133.432 0.964844 77.3736 0.964844Z" fill="currentColor"/>
</svg>
