<svg width="21" height="21" viewBox="0 0 21 21" fill="none" xmlns="http://www.w3.org/2000/svg">
  <path
    opacity="0.6"
    d="M11.3013 13.0702C10.537 13.1467 9.4709 12.8266 8.04671 12.1297L8.02026 12.1172L8.00061 12.1368C6.85364 13.2321 5.9347 13.8592 5.18172 14.0174L5.07559 14.0368C3.43069 14.2913 2.97659 12.7429 3.37591 9.85826L3.39176 9.74667L3.32493 9.71102C-0.730973 7.49471 -0.423501 5.47902 4.10718 4.64456L4.22767 4.62286L4.26634 4.417C4.66689 2.31333 5.24804 1.14741 6.19681 0.935047L6.28976 0.917604C7.29215 0.762556 8.22342 1.69761 9.27529 3.64222L9.37374 3.82687L9.49636 3.81097C14.0674 3.23758 14.9695 5.06618 11.7721 8.40381L11.718 8.45817L11.7674 8.55966C12.9937 11.1364 13.0512 12.737 11.5062 13.0391L11.4089 13.056L11.3013 13.0702Z"
    fill="#1F3824"
  />
</svg>
